<?xml version="1.0" standalone="no"?>
<!DOCTYPE svg PUBLIC "-//W3C//DTD SVG 20010904//EN"
 "http://www.w3.org/TR/2001/REC-SVG-20010904/DTD/svg10.dtd">
<svg version="1.0" xmlns="http://www.w3.org/2000/svg"
 width="1204.000000pt" height="1204.000000pt" viewBox="0 0 1204.000000 1204.000000"
 preserveAspectRatio="xMidYMid meet">
<metadata>
Created by potrace 1.11, written by Peter Selinger 2001-2013
</metadata>
<g transform="translate(0.000000,1204.000000) scale(0.100000,-0.100000)"
fill="#000000" stroke="none">
<path d="M1094 8580 c-401 -53 -729 -280 -897 -622 -133 -270 -174 -588 -120
-918 74 -456 350 -803 749 -941 397 -138 838 -91 1155 121 78 52 211 186 261
262 107 160 177 368 178 526 l0 32 -372 0 -373 0 -16 -69 c-48 -195 -153 -306
-315 -331 -90 -14 -178 -1 -259 39 -138 68 -222 213 -260 445 -49 300 23 609
175 749 84 79 146 101 280 101 93 1 111 -2 162 -26 31 -14 77 -45 102 -68 50
-47 110 -155 121 -219 l7 -41 369 0 370 0 -6 48 c-83 605 -476 927 -1125 921
-69 -1 -152 -5 -186 -9z"/>
<path d="M2620 7304 l0 -1225 668 4 c730 4 729 4 933 67 512 158 770 586 746
1234 -25 640 -330 1037 -871 1131 -74 12 -203 15 -782 15 l-694 0 0 -1226z
m1194 576 c205 -52 335 -188 382 -398 25 -115 16 -321 -20 -426 -49 -142 -115
-226 -226 -285 -90 -48 -168 -61 -382 -61 l-188 0 0 595 0 595 178 0 c145 0
193 -4 256 -20z"/>
<path d="M5140 7305 l0 -1225 385 0 385 0 0 785 c0 432 3 785 8 785 4 0 22
-69 39 -152 18 -84 66 -313 108 -508 41 -195 100 -472 131 -615 30 -143 57
-268 60 -277 5 -17 30 -18 340 -18 184 0 334 2 334 4 0 4 55 245 160 701 21
94 74 323 116 510 43 187 81 344 86 350 4 5 8 -275 8 -623 l0 -632 390 0 390
0 0 1070 0 1070 -559 0 -559 0 -52 -212 c-149 -613 -212 -870 -251 -1035 -24
-101 -47 -183 -50 -183 -4 0 -15 37 -26 83 -11 45 -89 367 -173 715 l-154 632
-558 0 -558 0 0 -1225z"/>
<path d="M9720 4925 l0 -1445 400 0 400 0 0 573 c0 613 3 655 52 756 12 25 43
67 69 93 120 120 296 88 374 -67 l30 -60 3 -647 3 -648 400 0 400 0 -4 768
c-3 754 -3 768 -25 850 -35 131 -86 226 -167 308 -109 111 -225 162 -414 184
-120 14 -279 0 -380 -33 -80 -26 -218 -116 -286 -186 l-50 -52 -5 523 -5 523
-397 3 -398 2 0 -1445z"/>
<path d="M8343 5088 c3 -1181 3 -1165 57 -1324 56 -163 196 -278 385 -315 149
-30 467 -13 628 31 l37 11 0 260 c0 243 -1 260 -17 255 -10 -3 -59 -8 -109
-12 -108 -8 -150 7 -186 65 -23 36 -23 39 -26 474 l-3 437 173 0 173 0 -3 290
-3 290 -169 0 -170 0 0 315 0 315 -385 0 -386 0 4 -1092z"/>
<path d="M2050 5966 c-292 -43 -482 -125 -630 -275 -144 -145 -194 -272 -194
-496 -1 -145 14 -218 64 -320 71 -147 242 -278 468 -359 102 -36 196 -60 418
-107 367 -76 434 -115 434 -251 0 -83 -43 -133 -145 -169 -61 -21 -204 -26
-266 -9 -94 26 -180 121 -201 222 l-12 58 -409 0 -410 0 6 -72 c36 -416 333
-692 843 -784 135 -24 426 -25 582 -1 464 72 732 281 819 638 27 111 24 319
-5 422 -62 217 -201 359 -454 461 -123 49 -233 78 -504 135 -264 54 -329 76
-374 128 -25 28 -30 42 -30 84 0 119 83 181 246 183 60 0 80 -4 137 -32 76
-38 132 -97 148 -157 6 -22 13 -46 15 -52 3 -10 90 -13 394 -13 214 0 390 3
390 8 -3 55 -25 173 -46 234 -90 273 -338 447 -729 514 -126 22 -435 27 -555
10z"/>
<path d="M4868 5585 c-187 -35 -319 -111 -438 -253 l-45 -53 -5 133 -5 133
-380 0 -380 0 -3 -1032 -2 -1033 400 0 399 0 3 638 c4 725 0 695 88 783 35 35
58 49 99 59 109 26 230 -9 278 -81 51 -77 53 -105 53 -776 l0 -623 395 0 395
0 0 578 c0 594 5 680 41 761 55 125 183 179 325 136 84 -25 132 -88 153 -200
7 -38 11 -270 11 -667 l0 -608 395 0 395 0 0 743 c0 471 -4 766 -11 807 -46
283 -212 475 -474 545 -87 23 -266 30 -377 15 -204 -27 -340 -91 -470 -220
l-86 -87 -39 60 c-65 102 -200 194 -341 233 -79 23 -277 27 -374 9z"/>
<path d="M7307 5543 c-4 -3 -7 -469 -7 -1035 l0 -1028 390 0 390 0 -2 1033 -3
1032 -381 3 c-209 1 -383 -1 -387 -5z"/>
</g>
</svg>
